<svg xmlns="http://www.w3.org/2000/svg" xmlns:xlink="http://www.w3.org/1999/xlink" width="200" zoomAndPan="magnify" viewBox="0 0 150 149.999998" height="200" preserveAspectRatio="xMidYMid meet" version="1.0"><defs><g/></defs><g fill="#e5e2d2" fill-opacity="1"><g transform="translate(32.15039, 58.150004)"><g><path d="M 10.734375 -11.421875 L 10.734375 -4.03125 C 10.734375 -3.1875 10.546875 -2.445312 10.171875 -1.8125 C 9.796875 -1.175781 9.25 -0.6875 8.53125 -0.34375 C 7.820312 -0.0078125 6.976562 0.15625 6 0.15625 C 4.53125 0.15625 3.390625 -0.21875 2.578125 -0.96875 C 1.765625 -1.726562 1.359375 -2.757812 1.359375 -4.0625 L 1.359375 -11.421875 L 3.78125 -11.421875 L 3.78125 -4.4375 C 3.78125 -3.550781 3.957031 -2.898438 4.3125 -2.484375 C 4.664062 -2.078125 5.25 -1.875 6.0625 -1.875 C 6.851562 -1.875 7.425781 -2.082031 7.78125 -2.5 C 8.144531 -2.914062 8.328125 -3.566406 8.328125 -4.453125 L 8.328125 -11.421875 Z M 10.734375 -11.421875 "/></g></g></g><g fill="#e5e2d2" fill-opacity="1"><g transform="translate(44.241187, 58.150004)"><g><path d="M 9.078125 0 L 6.6875 0 L 6.6875 -5.109375 C 6.6875 -5.734375 6.582031 -6.203125 6.375 -6.515625 C 6.164062 -6.835938 5.832031 -7 5.375 -7 C 4.769531 -7 4.328125 -6.773438 4.046875 -6.328125 C 3.773438 -5.878906 3.640625 -5.140625 3.640625 -4.109375 L 3.640625 0 L 1.25 0 L 1.25 -8.734375 L 3.078125 -8.734375 L 3.390625 -7.625 L 3.53125 -7.625 C 3.757812 -8.019531 4.09375 -8.332031 4.53125 -8.5625 C 4.976562 -8.789062 5.488281 -8.90625 6.0625 -8.90625 C 7.375 -8.90625 8.257812 -8.476562 8.71875 -7.625 L 8.9375 -7.625 C 9.164062 -8.03125 9.507812 -8.34375 9.96875 -8.5625 C 10.425781 -8.789062 10.941406 -8.90625 11.515625 -8.90625 C 12.503906 -8.90625 13.25 -8.648438 13.75 -8.140625 C 14.257812 -7.628906 14.515625 -6.816406 14.515625 -5.703125 L 14.515625 0 L 12.125 0 L 12.125 -5.109375 C 12.125 -5.734375 12.019531 -6.203125 11.8125 -6.515625 C 11.601562 -6.835938 11.269531 -7 10.8125 -7 C 10.226562 -7 9.789062 -6.789062 9.5 -6.375 C 9.21875 -5.957031 9.078125 -5.296875 9.078125 -4.390625 Z M 9.078125 0 "/></g></g></g><g fill="#e5e2d2" fill-opacity="1"><g transform="translate(59.948293, 58.150004)"><g><path d="M 6.796875 0 L 6.34375 -1.1875 L 6.28125 -1.1875 C 5.875 -0.6875 5.457031 -0.335938 5.03125 -0.140625 C 4.613281 0.0546875 4.0625 0.15625 3.375 0.15625 C 2.539062 0.15625 1.878906 -0.0820312 1.390625 -0.5625 C 0.910156 -1.039062 0.671875 -1.722656 0.671875 -2.609375 C 0.671875 -3.535156 0.992188 -4.21875 1.640625 -4.65625 C 2.296875 -5.101562 3.273438 -5.347656 4.578125 -5.390625 L 6.09375 -5.4375 L 6.09375 -5.828125 C 6.09375 -6.710938 5.640625 -7.15625 4.734375 -7.15625 C 4.035156 -7.15625 3.21875 -6.941406 2.28125 -6.515625 L 1.484375 -8.125 C 2.492188 -8.65625 3.609375 -8.921875 4.828125 -8.921875 C 6.003906 -8.921875 6.90625 -8.664062 7.53125 -8.15625 C 8.15625 -7.644531 8.46875 -6.867188 8.46875 -5.828125 L 8.46875 0 Z M 6.09375 -4.046875 L 5.171875 -4.015625 C 4.484375 -3.992188 3.96875 -3.867188 3.625 -3.640625 C 3.289062 -3.410156 3.125 -3.0625 3.125 -2.59375 C 3.125 -1.925781 3.507812 -1.59375 4.28125 -1.59375 C 4.832031 -1.59375 5.269531 -1.75 5.59375 -2.0625 C 5.925781 -2.382812 6.09375 -2.804688 6.09375 -3.328125 Z M 6.09375 -4.046875 "/></g></g></g><g fill="#e5e2d2" fill-opacity="1"><g transform="translate(69.610002, 58.150004)"><g/></g></g><g fill="#e5e2d2" fill-opacity="1"><g transform="translate(73.765237, 58.150004)"><g><path d="M 1.15625 -11 C 1.15625 -11.769531 1.585938 -12.15625 2.453125 -12.15625 C 3.316406 -12.15625 3.75 -11.769531 3.75 -11 C 3.75 -10.625 3.640625 -10.332031 3.421875 -10.125 C 3.203125 -9.925781 2.878906 -9.828125 2.453125 -9.828125 C 1.585938 -9.828125 1.15625 -10.21875 1.15625 -11 Z M 3.640625 0 L 1.25 0 L 1.25 -8.734375 L 3.640625 -8.734375 Z M 3.640625 0 "/></g></g></g><g fill="#e5e2d2" fill-opacity="1"><g transform="translate(78.646862, 58.150004)"><g><path d="M 8.859375 -8.734375 L 8.859375 -7.53125 L 7.484375 -7.171875 C 7.734375 -6.785156 7.859375 -6.347656 7.859375 -5.859375 C 7.859375 -4.921875 7.53125 -4.191406 6.875 -3.671875 C 6.226562 -3.148438 5.320312 -2.890625 4.15625 -2.890625 L 3.734375 -2.90625 L 3.375 -2.953125 C 3.132812 -2.765625 3.015625 -2.554688 3.015625 -2.328125 C 3.015625 -1.984375 3.453125 -1.8125 4.328125 -1.8125 L 5.8125 -1.8125 C 6.769531 -1.8125 7.5 -1.601562 8 -1.1875 C 8.5 -0.78125 8.75 -0.175781 8.75 0.625 C 8.75 1.644531 8.320312 2.4375 7.46875 3 C 6.625 3.5625 5.40625 3.84375 3.8125 3.84375 C 2.59375 3.84375 1.660156 3.628906 1.015625 3.203125 C 0.367188 2.785156 0.046875 2.191406 0.046875 1.421875 C 0.046875 0.898438 0.207031 0.457031 0.53125 0.09375 C 0.863281 -0.257812 1.347656 -0.507812 1.984375 -0.65625 C 1.742188 -0.757812 1.53125 -0.929688 1.34375 -1.171875 C 1.164062 -1.410156 1.078125 -1.660156 1.078125 -1.921875 C 1.078125 -2.253906 1.171875 -2.53125 1.359375 -2.75 C 1.554688 -2.976562 1.835938 -3.195312 2.203125 -3.40625 C 1.742188 -3.601562 1.378906 -3.921875 1.109375 -4.359375 C 0.835938 -4.796875 0.703125 -5.3125 0.703125 -5.90625 C 0.703125 -6.863281 1.007812 -7.601562 1.625 -8.125 C 2.25 -8.644531 3.140625 -8.90625 4.296875 -8.90625 C 4.535156 -8.90625 4.820312 -8.878906 5.15625 -8.828125 C 5.5 -8.785156 5.71875 -8.753906 5.8125 -8.734375 Z M 2.109375 1.234375 C 2.109375 1.566406 2.265625 1.828125 2.578125 2.015625 C 2.898438 2.203125 3.34375 2.296875 3.90625 2.296875 C 4.757812 2.296875 5.425781 2.175781 5.90625 1.9375 C 6.394531 1.707031 6.640625 1.390625 6.640625 0.984375 C 6.640625 0.648438 6.492188 0.421875 6.203125 0.296875 C 5.921875 0.171875 5.484375 0.109375 4.890625 0.109375 L 3.65625 0.109375 C 3.21875 0.109375 2.847656 0.210938 2.546875 0.421875 C 2.253906 0.628906 2.109375 0.898438 2.109375 1.234375 Z M 2.984375 -5.875 C 2.984375 -5.40625 3.085938 -5.03125 3.296875 -4.75 C 3.515625 -4.476562 3.847656 -4.34375 4.296875 -4.34375 C 4.742188 -4.34375 5.070312 -4.476562 5.28125 -4.75 C 5.488281 -5.03125 5.59375 -5.40625 5.59375 -5.875 C 5.59375 -6.925781 5.160156 -7.453125 4.296875 -7.453125 C 3.421875 -7.453125 2.984375 -6.925781 2.984375 -5.875 Z M 2.984375 -5.875 "/></g></g></g><g fill="#e5e2d2" fill-opacity="1"><g transform="translate(87.683723, 58.150004)"><g><path d="M 6.125 -8.90625 C 6.445312 -8.90625 6.71875 -8.878906 6.9375 -8.828125 L 6.75 -6.59375 C 6.5625 -6.644531 6.328125 -6.671875 6.046875 -6.671875 C 5.285156 -6.671875 4.691406 -6.472656 4.265625 -6.078125 C 3.847656 -5.691406 3.640625 -5.148438 3.640625 -4.453125 L 3.640625 0 L 1.25 0 L 1.25 -8.734375 L 3.0625 -8.734375 L 3.40625 -7.265625 L 3.53125 -7.265625 C 3.800781 -7.753906 4.164062 -8.148438 4.625 -8.453125 C 5.082031 -8.753906 5.582031 -8.90625 6.125 -8.90625 Z M 6.125 -8.90625 "/></g></g></g><g fill="#e5e2d2" fill-opacity="1"><g transform="translate(94.947574, 58.150004)"><g><path d="M 4.875 -7.203125 C 4.363281 -7.203125 3.960938 -7.039062 3.671875 -6.71875 C 3.390625 -6.40625 3.226562 -5.953125 3.1875 -5.359375 L 6.53125 -5.359375 C 6.519531 -5.953125 6.363281 -6.40625 6.0625 -6.71875 C 5.769531 -7.039062 5.375 -7.203125 4.875 -7.203125 Z M 5.203125 0.15625 C 3.796875 0.15625 2.695312 -0.226562 1.90625 -1 C 1.113281 -1.78125 0.71875 -2.882812 0.71875 -4.3125 C 0.71875 -5.769531 1.082031 -6.898438 1.8125 -7.703125 C 2.550781 -8.503906 3.566406 -8.90625 4.859375 -8.90625 C 6.085938 -8.90625 7.046875 -8.550781 7.734375 -7.84375 C 8.421875 -7.144531 8.765625 -6.175781 8.765625 -4.9375 L 8.765625 -3.78125 L 3.140625 -3.78125 C 3.160156 -3.101562 3.359375 -2.570312 3.734375 -2.1875 C 4.109375 -1.8125 4.632812 -1.625 5.3125 -1.625 C 5.84375 -1.625 6.34375 -1.675781 6.8125 -1.78125 C 7.28125 -1.894531 7.769531 -2.070312 8.28125 -2.3125 L 8.28125 -0.46875 C 7.863281 -0.257812 7.414062 -0.101562 6.9375 0 C 6.46875 0.101562 5.890625 0.15625 5.203125 0.15625 Z M 5.203125 0.15625 "/></g></g></g><g fill="#e5e2d2" fill-opacity="1"><g transform="translate(104.398391, 58.150004)"><g><path d="M 0.546875 3.84375 C -0.0664062 3.84375 -0.59375 3.78125 -1.03125 3.65625 L -1.03125 1.78125 C -0.664062 1.875 -0.289062 1.921875 0.09375 1.921875 C 0.5 1.921875 0.789062 1.804688 0.96875 1.578125 C 1.15625 1.359375 1.25 1.03125 1.25 0.59375 L 1.25 -8.734375 L 3.640625 -8.734375 L 3.640625 0.953125 C 3.640625 1.878906 3.367188 2.59375 2.828125 3.09375 C 2.296875 3.59375 1.535156 3.84375 0.546875 3.84375 Z M 1.15625 -11 C 1.15625 -11.769531 1.585938 -12.15625 2.453125 -12.15625 C 3.316406 -12.15625 3.75 -11.769531 3.75 -11 C 3.75 -10.625 3.640625 -10.332031 3.421875 -10.125 C 3.203125 -9.925781 2.878906 -9.828125 2.453125 -9.828125 C 1.585938 -9.828125 1.15625 -10.21875 1.15625 -11 Z M 1.15625 -11 "/></g></g></g><g fill="#e5e2d2" fill-opacity="1"><g transform="translate(109.280016, 58.150004)"><g><path d="M 6.796875 0 L 6.34375 -1.1875 L 6.28125 -1.1875 C 5.875 -0.6875 5.457031 -0.335938 5.03125 -0.140625 C 4.613281 0.0546875 4.0625 0.15625 3.375 0.15625 C 2.539062 0.15625 1.878906 -0.0820312 1.390625 -0.5625 C 0.910156 -1.039062 0.671875 -1.722656 0.671875 -2.609375 C 0.671875 -3.535156 0.992188 -4.21875 1.640625 -4.65625 C 2.296875 -5.101562 3.273438 -5.347656 4.578125 -5.390625 L 6.09375 -5.4375 L 6.09375 -5.828125 C 6.09375 -6.710938 5.640625 -7.15625 4.734375 -7.15625 C 4.035156 -7.15625 3.21875 -6.941406 2.28125 -6.515625 L 1.484375 -8.125 C 2.492188 -8.65625 3.609375 -8.921875 4.828125 -8.921875 C 6.003906 -8.921875 6.90625 -8.664062 7.53125 -8.15625 C 8.15625 -7.644531 8.46875 -6.867188 8.46875 -5.828125 L 8.46875 0 Z M 6.09375 -4.046875 L 5.171875 -4.015625 C 4.484375 -3.992188 3.96875 -3.867188 3.625 -3.640625 C 3.289062 -3.410156 3.125 -3.0625 3.125 -2.59375 C 3.125 -1.925781 3.507812 -1.59375 4.28125 -1.59375 C 4.832031 -1.59375 5.269531 -1.75 5.59375 -2.0625 C 5.925781 -2.382812 6.09375 -2.804688 6.09375 -3.328125 Z M 6.09375 -4.046875 "/></g></g></g><g fill="#e5e2d2" fill-opacity="1"><g transform="translate(32.501953, 74.099983)"><g><path d="M 4.875 -1.71875 C 5.476562 -1.71875 5.921875 -1.890625 6.203125 -2.234375 C 6.484375 -2.578125 6.632812 -3.179688 6.65625 -4.046875 L 6.65625 -4.34375 C 6.65625 -5.28125 6.507812 -5.953125 6.21875 -6.359375 C 5.9375 -6.765625 5.472656 -6.96875 4.828125 -6.96875 C 3.710938 -6.96875 3.15625 -6.085938 3.15625 -4.328125 C 3.15625 -3.453125 3.289062 -2.796875 3.5625 -2.359375 C 3.84375 -1.929688 4.28125 -1.71875 4.875 -1.71875 Z M 4.015625 0.15625 C 2.984375 0.15625 2.175781 -0.238281 1.59375 -1.03125 C 1.007812 -1.832031 0.71875 -2.941406 0.71875 -4.359375 C 0.71875 -5.785156 1.015625 -6.898438 1.609375 -7.703125 C 2.210938 -8.503906 3.03125 -8.90625 4.0625 -8.90625 C 4.613281 -8.90625 5.09375 -8.800781 5.5 -8.59375 C 5.914062 -8.382812 6.28125 -8.0625 6.59375 -7.625 L 6.65625 -7.625 L 6.875 -8.734375 L 8.890625 -8.734375 L 8.890625 3.84375 L 6.5 3.84375 L 6.5 0.1875 C 6.5 -0.132812 6.53125 -0.578125 6.59375 -1.140625 L 6.5 -1.140625 C 6.238281 -0.710938 5.894531 -0.390625 5.46875 -0.171875 C 5.050781 0.046875 4.566406 0.15625 4.015625 0.15625 Z M 4.015625 0.15625 "/></g></g></g><g fill="#e5e2d2" fill-opacity="1"><g transform="translate(42.62448, 74.099983)"><g><path d="M 7.4375 0 L 7.125 -1.125 L 7 -1.125 C 6.738281 -0.71875 6.375 -0.398438 5.90625 -0.171875 C 5.4375 0.046875 4.90625 0.15625 4.3125 0.15625 C 3.28125 0.15625 2.503906 -0.117188 1.984375 -0.671875 C 1.460938 -1.222656 1.203125 -2.015625 1.203125 -3.046875 L 1.203125 -8.734375 L 3.59375 -8.734375 L 3.59375 -3.640625 C 3.59375 -3.003906 3.703125 -2.53125 3.921875 -2.21875 C 4.148438 -1.90625 4.507812 -1.75 5 -1.75 C 5.664062 -1.75 6.144531 -1.96875 6.4375 -2.40625 C 6.738281 -2.851562 6.890625 -3.59375 6.890625 -4.625 L 6.890625 -8.734375 L 9.265625 -8.734375 L 9.265625 0 Z M 7.4375 0 "/></g></g></g><g fill="#e5e2d2" fill-opacity="1"><g transform="translate(53.137537, 74.099983)"><g><path d="M 4.875 -7.203125 C 4.363281 -7.203125 3.960938 -7.039062 3.671875 -6.71875 C 3.390625 -6.40625 3.226562 -5.953125 3.1875 -5.359375 L 6.53125 -5.359375 C 6.519531 -5.953125 6.363281 -6.40625 6.0625 -6.71875 C 5.769531 -7.039062 5.375 -7.203125 4.875 -7.203125 Z M 5.203125 0.15625 C 3.796875 0.15625 2.695312 -0.226562 1.90625 -1 C 1.113281 -1.78125 0.71875 -2.882812 0.71875 -4.3125 C 0.71875 -5.769531 1.082031 -6.898438 1.8125 -7.703125 C 2.550781 -8.503906 3.566406 -8.90625 4.859375 -8.90625 C 6.085938 -8.90625 7.046875 -8.550781 7.734375 -7.84375 C 8.421875 -7.144531 8.765625 -6.175781 8.765625 -4.9375 L 8.765625 -3.78125 L 3.140625 -3.78125 C 3.160156 -3.101562 3.359375 -2.570312 3.734375 -2.1875 C 4.109375 -1.8125 4.632812 -1.625 5.3125 -1.625 C 5.84375 -1.625 6.34375 -1.675781 6.8125 -1.78125 C 7.28125 -1.894531 7.769531 -2.070312 8.28125 -2.3125 L 8.28125 -0.46875 C 7.863281 -0.257812 7.414062 -0.101562 6.9375 0 C 6.46875 0.101562 5.890625 0.15625 5.203125 0.15625 Z M 5.203125 0.15625 "/></g></g></g><g fill="#e5e2d2" fill-opacity="1"><g transform="translate(62.588354, 74.099983)"><g/></g></g><g fill="#e5e2d2" fill-opacity="1"><g transform="translate(66.743589, 74.099983)"><g><path d="M 6.078125 -6.953125 L 4.015625 -6.953125 L 4.015625 0 L 1.640625 0 L 1.640625 -6.953125 L 0.328125 -6.953125 L 0.328125 -8.09375 L 1.640625 -8.734375 L 1.640625 -9.375 C 1.640625 -10.375 1.882812 -11.101562 2.375 -11.5625 C 2.863281 -12.019531 3.644531 -12.25 4.71875 -12.25 C 5.539062 -12.25 6.273438 -12.125 6.921875 -11.875 L 6.3125 -10.125 C 5.832031 -10.28125 5.390625 -10.359375 4.984375 -10.359375 C 4.640625 -10.359375 4.390625 -10.253906 4.234375 -10.046875 C 4.085938 -9.847656 4.015625 -9.59375 4.015625 -9.28125 L 4.015625 -8.734375 L 6.078125 -8.734375 Z M 6.078125 -6.953125 "/></g></g></g><g fill="#e5e2d2" fill-opacity="1"><g transform="translate(72.937394, 74.099983)"><g><path d="M 6.796875 0 L 6.34375 -1.1875 L 6.28125 -1.1875 C 5.875 -0.6875 5.457031 -0.335938 5.03125 -0.140625 C 4.613281 0.0546875 4.0625 0.15625 3.375 0.15625 C 2.539062 0.15625 1.878906 -0.0820312 1.390625 -0.5625 C 0.910156 -1.039062 0.671875 -1.722656 0.671875 -2.609375 C 0.671875 -3.535156 0.992188 -4.21875 1.640625 -4.65625 C 2.296875 -5.101562 3.273438 -5.347656 4.578125 -5.390625 L 6.09375 -5.4375 L 6.09375 -5.828125 C 6.09375 -6.710938 5.640625 -7.15625 4.734375 -7.15625 C 4.035156 -7.15625 3.21875 -6.941406 2.28125 -6.515625 L 1.484375 -8.125 C 2.492188 -8.65625 3.609375 -8.921875 4.828125 -8.921875 C 6.003906 -8.921875 6.90625 -8.664062 7.53125 -8.15625 C 8.15625 -7.644531 8.46875 -6.867188 8.46875 -5.828125 L 8.46875 0 Z M 6.09375 -4.046875 L 5.171875 -4.015625 C 4.484375 -3.992188 3.96875 -3.867188 3.625 -3.640625 C 3.289062 -3.410156 3.125 -3.0625 3.125 -2.59375 C 3.125 -1.925781 3.507812 -1.59375 4.28125 -1.59375 C 4.832031 -1.59375 5.269531 -1.75 5.59375 -2.0625 C 5.925781 -2.382812 6.09375 -2.804688 6.09375 -3.328125 Z M 6.09375 -4.046875 "/></g></g></g><g fill="#e5e2d2" fill-opacity="1"><g transform="translate(82.599102, 74.099983)"><g><path d="M 7.328125 0 L 0.4375 0 L 0.4375 -1.40625 L 4.484375 -6.921875 L 0.671875 -6.921875 L 0.671875 -8.734375 L 7.1875 -8.734375 L 7.1875 -7.1875 L 3.25 -1.828125 L 7.328125 -1.828125 Z M 7.328125 0 "/></g></g></g><g fill="#e5e2d2" fill-opacity="1"><g transform="translate(32.501953, 91.549962)"><g><path d="M 10.921875 -5.828125 C 10.921875 -3.941406 10.382812 -2.5 9.3125 -1.5 C 8.238281 -0.5 6.691406 0 4.671875 0 L 1.4375 0 L 1.4375 -11.421875 L 5.03125 -11.421875 C 6.894531 -11.421875 8.34375 -10.925781 9.375 -9.9375 C 10.40625 -8.957031 10.921875 -7.585938 10.921875 -5.828125 Z M 8.40625 -5.765625 C 8.40625 -8.210938 7.320312 -9.4375 5.15625 -9.4375 L 3.859375 -9.4375 L 3.859375 -2 L 4.90625 -2 C 7.238281 -2 8.40625 -3.253906 8.40625 -5.765625 Z M 8.40625 -5.765625 "/></g></g></g><g fill="#e5e2d2" fill-opacity="1"><g transform="translate(44.34281, 91.549962)"><g><path d="M 1.15625 -11 C 1.15625 -11.769531 1.585938 -12.15625 2.453125 -12.15625 C 3.316406 -12.15625 3.75 -11.769531 3.75 -11 C 3.75 -10.625 3.640625 -10.332031 3.421875 -10.125 C 3.203125 -9.925781 2.878906 -9.828125 2.453125 -9.828125 C 1.585938 -9.828125 1.15625 -10.21875 1.15625 -11 Z M 3.640625 0 L 1.25 0 L 1.25 -8.734375 L 3.640625 -8.734375 Z M 3.640625 0 "/></g></g></g><g fill="#e5e2d2" fill-opacity="1"><g transform="translate(49.224436, 91.549962)"><g><path d="M 7.34375 -2.59375 C 7.34375 -1.695312 7.03125 -1.015625 6.40625 -0.546875 C 5.789062 -0.078125 4.863281 0.15625 3.625 0.15625 C 2.988281 0.15625 2.445312 0.109375 2 0.015625 C 1.550781 -0.0664062 1.128906 -0.191406 0.734375 -0.359375 L 0.734375 -2.328125 C 1.179688 -2.117188 1.679688 -1.941406 2.234375 -1.796875 C 2.785156 -1.660156 3.273438 -1.59375 3.703125 -1.59375 C 4.566406 -1.59375 5 -1.84375 5 -2.34375 C 5 -2.53125 4.941406 -2.679688 4.828125 -2.796875 C 4.710938 -2.910156 4.515625 -3.039062 4.234375 -3.1875 C 3.953125 -3.34375 3.578125 -3.519531 3.109375 -3.71875 C 2.429688 -4 1.9375 -4.257812 1.625 -4.5 C 1.3125 -4.738281 1.082031 -5.007812 0.9375 -5.3125 C 0.789062 -5.625 0.71875 -6.007812 0.71875 -6.46875 C 0.71875 -7.238281 1.019531 -7.835938 1.625 -8.265625 C 2.226562 -8.691406 3.082031 -8.90625 4.1875 -8.90625 C 5.238281 -8.90625 6.257812 -8.675781 7.25 -8.21875 L 6.53125 -6.5 C 6.09375 -6.6875 5.679688 -6.835938 5.296875 -6.953125 C 4.921875 -7.078125 4.535156 -7.140625 4.140625 -7.140625 C 3.441406 -7.140625 3.09375 -6.945312 3.09375 -6.5625 C 3.09375 -6.351562 3.203125 -6.171875 3.421875 -6.015625 C 3.648438 -5.859375 4.148438 -5.625 4.921875 -5.3125 C 5.597656 -5.039062 6.09375 -4.785156 6.40625 -4.546875 C 6.726562 -4.304688 6.960938 -4.03125 7.109375 -3.71875 C 7.265625 -3.40625 7.34375 -3.03125 7.34375 -2.59375 Z M 7.34375 -2.59375 "/></g></g></g><g fill="#e5e2d2" fill-opacity="1"><g transform="translate(57.175619, 91.549962)"><g><path d="M 4.796875 0.15625 C 2.078125 0.15625 0.71875 -1.335938 0.71875 -4.328125 C 0.71875 -5.804688 1.085938 -6.9375 1.828125 -7.71875 C 2.566406 -8.507812 3.628906 -8.90625 5.015625 -8.90625 C 6.023438 -8.90625 6.929688 -8.707031 7.734375 -8.3125 L 7.03125 -6.46875 C 6.65625 -6.613281 6.304688 -6.734375 5.984375 -6.828125 C 5.660156 -6.929688 5.335938 -6.984375 5.015625 -6.984375 C 3.773438 -6.984375 3.15625 -6.101562 3.15625 -4.34375 C 3.15625 -2.632812 3.773438 -1.78125 5.015625 -1.78125 C 5.472656 -1.78125 5.894531 -1.835938 6.28125 -1.953125 C 6.675781 -2.078125 7.066406 -2.269531 7.453125 -2.53125 L 7.453125 -0.5 C 7.066406 -0.25 6.675781 -0.078125 6.28125 0.015625 C 5.894531 0.109375 5.398438 0.15625 4.796875 0.15625 Z M 4.796875 0.15625 "/></g></g></g><g fill="#e5e2d2" fill-opacity="1"><g transform="translate(65.400178, 91.549962)"><g><path d="M 3.640625 0 L 1.25 0 L 1.25 -8.734375 L 3.640625 -8.734375 Z M 1.125 -9.703125 L 1.125 -9.90625 C 2.019531 -10.945312 2.632812 -11.734375 2.96875 -12.265625 L 5.640625 -12.265625 L 5.640625 -12.09375 C 5.367188 -11.820312 4.90625 -11.421875 4.25 -10.890625 C 3.59375 -10.359375 3.082031 -9.960938 2.71875 -9.703125 Z M 1.125 -9.703125 "/></g></g></g><g fill="#e5e2d2" fill-opacity="1"><g transform="translate(70.281804, 91.549962)"><g><path d="M 6.046875 0.15625 C 5.023438 0.15625 4.222656 -0.21875 3.640625 -0.96875 L 3.515625 -0.96875 C 3.597656 -0.226562 3.640625 0.195312 3.640625 0.3125 L 3.640625 3.84375 L 1.25 3.84375 L 1.25 -8.734375 L 3.1875 -8.734375 L 3.53125 -7.609375 L 3.640625 -7.609375 C 4.191406 -8.472656 5.015625 -8.90625 6.109375 -8.90625 C 7.140625 -8.90625 7.945312 -8.503906 8.53125 -7.703125 C 9.113281 -6.910156 9.40625 -5.804688 9.40625 -4.390625 C 9.40625 -3.453125 9.269531 -2.640625 9 -1.953125 C 8.726562 -1.265625 8.335938 -0.738281 7.828125 -0.375 C 7.328125 -0.0195312 6.734375 0.15625 6.046875 0.15625 Z M 5.34375 -7 C 4.757812 -7 4.332031 -6.816406 4.0625 -6.453125 C 3.789062 -6.085938 3.648438 -5.488281 3.640625 -4.65625 L 3.640625 -4.40625 C 3.640625 -3.46875 3.773438 -2.796875 4.046875 -2.390625 C 4.328125 -1.984375 4.769531 -1.78125 5.375 -1.78125 C 6.445312 -1.78125 6.984375 -2.660156 6.984375 -4.421875 C 6.984375 -5.273438 6.847656 -5.914062 6.578125 -6.34375 C 6.316406 -6.78125 5.90625 -7 5.34375 -7 Z M 5.34375 -7 "/></g></g></g><g fill="#e5e2d2" fill-opacity="1"><g transform="translate(80.404332, 91.549962)"><g><path d="M 7.4375 0 L 7.125 -1.125 L 7 -1.125 C 6.738281 -0.71875 6.375 -0.398438 5.90625 -0.171875 C 5.4375 0.046875 4.90625 0.15625 4.3125 0.15625 C 3.28125 0.15625 2.503906 -0.117188 1.984375 -0.671875 C 1.460938 -1.222656 1.203125 -2.015625 1.203125 -3.046875 L 1.203125 -8.734375 L 3.59375 -8.734375 L 3.59375 -3.640625 C 3.59375 -3.003906 3.703125 -2.53125 3.921875 -2.21875 C 4.148438 -1.90625 4.507812 -1.75 5 -1.75 C 5.664062 -1.75 6.144531 -1.96875 6.4375 -2.40625 C 6.738281 -2.851562 6.890625 -3.59375 6.890625 -4.625 L 6.890625 -8.734375 L 9.265625 -8.734375 L 9.265625 0 Z M 7.4375 0 "/></g></g></g><g fill="#e5e2d2" fill-opacity="1"><g transform="translate(90.917389, 91.549962)"><g><path d="M 3.640625 0 L 1.25 0 L 1.25 -12.15625 L 3.640625 -12.15625 Z M 3.640625 0 "/></g></g></g><g fill="#e5e2d2" fill-opacity="1"><g transform="translate(95.799015, 91.549962)"><g><path d="M 3.15625 -4.390625 C 3.15625 -3.523438 3.296875 -2.867188 3.578125 -2.421875 C 3.859375 -1.984375 4.320312 -1.765625 4.96875 -1.765625 C 5.601562 -1.765625 6.054688 -1.984375 6.328125 -2.421875 C 6.609375 -2.859375 6.75 -3.515625 6.75 -4.390625 C 6.75 -5.253906 6.609375 -5.898438 6.328125 -6.328125 C 6.046875 -6.765625 5.585938 -6.984375 4.953125 -6.984375 C 4.316406 -6.984375 3.859375 -6.765625 3.578125 -6.328125 C 3.296875 -5.898438 3.15625 -5.253906 3.15625 -4.390625 Z M 9.1875 -4.390625 C 9.1875 -2.960938 8.8125 -1.847656 8.0625 -1.046875 C 7.3125 -0.242188 6.269531 0.15625 4.9375 0.15625 C 4.09375 0.15625 3.347656 -0.0234375 2.703125 -0.390625 C 2.066406 -0.765625 1.578125 -1.296875 1.234375 -1.984375 C 0.890625 -2.671875 0.71875 -3.472656 0.71875 -4.390625 C 0.71875 -5.816406 1.085938 -6.925781 1.828125 -7.71875 C 2.578125 -8.507812 3.628906 -8.90625 4.984375 -8.90625 C 5.816406 -8.90625 6.550781 -8.722656 7.1875 -8.359375 C 7.832031 -7.992188 8.328125 -7.46875 8.671875 -6.78125 C 9.015625 -6.101562 9.1875 -5.304688 9.1875 -4.390625 Z M 9.1875 -4.390625 "/></g></g></g><g fill="#e5e2d2" fill-opacity="1"><g transform="translate(105.702845, 91.549962)"><g><path d="M 7.34375 -2.59375 C 7.34375 -1.695312 7.03125 -1.015625 6.40625 -0.546875 C 5.789062 -0.078125 4.863281 0.15625 3.625 0.15625 C 2.988281 0.15625 2.445312 0.109375 2 0.015625 C 1.550781 -0.0664062 1.128906 -0.191406 0.734375 -0.359375 L 0.734375 -2.328125 C 1.179688 -2.117188 1.679688 -1.941406 2.234375 -1.796875 C 2.785156 -1.660156 3.273438 -1.59375 3.703125 -1.59375 C 4.566406 -1.59375 5 -1.84375 5 -2.34375 C 5 -2.53125 4.941406 -2.679688 4.828125 -2.796875 C 4.710938 -2.910156 4.515625 -3.039062 4.234375 -3.1875 C 3.953125 -3.34375 3.578125 -3.519531 3.109375 -3.71875 C 2.429688 -4 1.9375 -4.257812 1.625 -4.5 C 1.3125 -4.738281 1.082031 -5.007812 0.9375 -5.3125 C 0.789062 -5.625 0.71875 -6.007812 0.71875 -6.46875 C 0.71875 -7.238281 1.019531 -7.835938 1.625 -8.265625 C 2.226562 -8.691406 3.082031 -8.90625 4.1875 -8.90625 C 5.238281 -8.90625 6.257812 -8.675781 7.25 -8.21875 L 6.53125 -6.5 C 6.09375 -6.6875 5.679688 -6.835938 5.296875 -6.953125 C 4.921875 -7.078125 4.535156 -7.140625 4.140625 -7.140625 C 3.441406 -7.140625 3.09375 -6.945312 3.09375 -6.5625 C 3.09375 -6.351562 3.203125 -6.171875 3.421875 -6.015625 C 3.648438 -5.859375 4.148438 -5.625 4.921875 -5.3125 C 5.597656 -5.039062 6.09375 -4.785156 6.40625 -4.546875 C 6.726562 -4.304688 6.960938 -4.03125 7.109375 -3.71875 C 7.265625 -3.40625 7.34375 -3.03125 7.34375 -2.59375 Z M 7.34375 -2.59375 "/></g></g></g></svg>